<?xml version="1.0" encoding="UTF-8" standalone="no"?>
<!-- Created with Inkscape (http://www.inkscape.org/) -->

<svg
   xmlns:dc="http://purl.org/dc/elements/1.1/"
   xmlns:cc="http://creativecommons.org/ns#"
   xmlns:rdf="http://www.w3.org/1999/02/22-rdf-syntax-ns#"
   xmlns:svg="http://www.w3.org/2000/svg"
   xmlns="http://www.w3.org/2000/svg"
   xmlns:sodipodi="http://sodipodi.sourceforge.net/DTD/sodipodi-0.dtd"
   xmlns:inkscape="http://www.inkscape.org/namespaces/inkscape"
   width="449.80606"
   height="271.51422"
   id="svg2"
   version="1.1"
   inkscape:version="0.47pre4 r22446"
   sodipodi:docname="d4os.svg"
   inkscape:export-filename="/home/alpha/Desktop/logo_d4os/d4os.png"
   inkscape:export-xdpi="90"
   inkscape:export-ydpi="90">
  <defs
     id="defs4">
    <inkscape:perspective
       sodipodi:type="inkscape:persp3d"
       inkscape:vp_x="0 : 526.18109 : 1"
       inkscape:vp_y="0 : 1000 : 0"
       inkscape:vp_z="744.09448 : 526.18109 : 1"
       inkscape:persp3d-origin="372.04724 : 350.78739 : 1"
       id="perspective10" />
    <inkscape:perspective
       id="perspective2902"
       inkscape:persp3d-origin="0.5 : 0.33333333 : 1"
       inkscape:vp_z="1 : 0.5 : 1"
       inkscape:vp_y="0 : 1000 : 0"
       inkscape:vp_x="0 : 0.5 : 1"
       sodipodi:type="inkscape:persp3d" />
    <inkscape:perspective
       id="perspective2991"
       inkscape:persp3d-origin="0.5 : 0.33333333 : 1"
       inkscape:vp_z="1 : 0.5 : 1"
       inkscape:vp_y="0 : 1000 : 0"
       inkscape:vp_x="0 : 0.5 : 1"
       sodipodi:type="inkscape:persp3d" />
    <inkscape:perspective
       id="perspective3804"
       inkscape:persp3d-origin="0.5 : 0.33333333 : 1"
       inkscape:vp_z="1 : 0.5 : 1"
       inkscape:vp_y="0 : 1000 : 0"
       inkscape:vp_x="0 : 0.5 : 1"
       sodipodi:type="inkscape:persp3d" />
    <inkscape:perspective
       id="perspective3826"
       inkscape:persp3d-origin="0.5 : 0.33333333 : 1"
       inkscape:vp_z="1 : 0.5 : 1"
       inkscape:vp_y="0 : 1000 : 0"
       inkscape:vp_x="0 : 0.5 : 1"
       sodipodi:type="inkscape:persp3d" />
    <inkscape:perspective
       id="perspective3911"
       inkscape:persp3d-origin="0.5 : 0.33333333 : 1"
       inkscape:vp_z="1 : 0.5 : 1"
       inkscape:vp_y="0 : 1000 : 0"
       inkscape:vp_x="0 : 0.5 : 1"
       sodipodi:type="inkscape:persp3d" />
    <inkscape:perspective
       id="perspective3965"
       inkscape:persp3d-origin="0.5 : 0.33333333 : 1"
       inkscape:vp_z="1 : 0.5 : 1"
       inkscape:vp_y="0 : 1000 : 0"
       inkscape:vp_x="0 : 0.5 : 1"
       sodipodi:type="inkscape:persp3d" />
    <inkscape:perspective
       id="perspective3987"
       inkscape:persp3d-origin="0.5 : 0.33333333 : 1"
       inkscape:vp_z="1 : 0.5 : 1"
       inkscape:vp_y="0 : 1000 : 0"
       inkscape:vp_x="0 : 0.5 : 1"
       sodipodi:type="inkscape:persp3d" />
  </defs>
  <sodipodi:namedview
     id="base"
     pagecolor="#ffffff"
     bordercolor="#666666"
     borderopacity="1.0"
     inkscape:pageopacity="0.0"
     inkscape:pageshadow="2"
     inkscape:zoom="2"
     inkscape:cx="239.20012"
     inkscape:cy="148.33779"
     inkscape:document-units="px"
     inkscape:current-layer="layer1"
     showgrid="false"
     inkscape:window-width="1680"
     inkscape:window-height="976"
     inkscape:window-x="0"
     inkscape:window-y="25"
     inkscape:window-maximized="1" />
  <metadata
     id="metadata7">
    <rdf:RDF>
      <cc:Work
         rdf:about="">
        <dc:format>image/svg+xml</dc:format>
        <dc:type
           rdf:resource="http://purl.org/dc/dcmitype/StillImage" />
      </cc:Work>
    </rdf:RDF>
  </metadata>
  <g
     inkscape:label="Layer 1"
     inkscape:groupmode="layer"
     id="layer1"
     transform="translate(-150.99358,-216.38669)">
    <path
       sodipodi:nodetypes="ccssssscccccczc"
       id="path2940"
       d="m 392.04279,241.20111 2.26187,-4.45063 c 2.64296,-5.20048 9.09563,-11.3455 14.27012,-13.58976 5.29623,-2.29705 16.59075,-2.06212 21.63956,0.45013 4.90956,2.44295 13.05887,2.29902 19.54143,-0.34513 14.3258,-5.84331 31.64938,2.18876 36.55128,16.947 1.97277,5.93945 1.48865,14.72908 -1.08542,19.70678 -2.13494,4.12852 -2.26949,14.01975 -0.26545,19.5141 l 1.45899,4 57.19223,0.5 57.19224,0.5 -71.29265,101.71503 -71.29265,101.71503 c 0,0 -91.49491,7.12288 -115.35699,-74.465 -23.86208,-81.58787 49.18544,-172.19755 49.18544,-172.19755 z"
       style="fill:#d9d9d9" />
    <path
       sodipodi:nodetypes="ccssssccccsssssssssssssssssc"
       id="path2938"
       d="m 403.63725,298.9336 1.12983,4.25 c 7.45738,28.05207 41.80066,36.79732 61.3945,15.63364 4.95274,-5.34954 9.55276,-14.22004 9.55276,-18.42115 0,-1.26301 6.5472,-1.46249 48,-1.46249 26.4,0 48,0.26523 48,0.58939 0,0.32417 -27.27528,39.47417 -60.61173,87 l -60.61173,86.41061 -46.85363,-174 z m 28.8803,23.65629 c -17.69808,-4.97428 -26.48235,-24.33284 -18.39724,-40.54339 1.81699,-3.64306 2.11146,-5.24364 1.40056,-7.6129 -0.84499,-2.81615 -0.52883,-8.72545 0.77864,-14.55349 0.45789,-2.04105 0.0753,-2.78019 -1.90655,-3.68317 -3.64669,-1.66155 -5.25794,-7.24238 -3.22561,-11.17247 2.51564,-4.86472 6.80079,-6.29925 11.89007,-3.98041 1.34046,0.61075 2.99161,2.14639 3.66923,3.41253 1.18355,2.21149 1.38957,2.2465 5.23559,0.88955 4.74591,-1.67446 9.83745,-1.79424 15.02555,-0.35349 3.52198,0.97807 3.97692,0.84443 6.82692,-2.00557 3.3817,-3.38171 6.48326,-3.83727 10.82811,-1.59047 3.23383,1.67228 4.07152,3.32438 4.07152,8.02988 0,2.48269 -0.77448,3.981 -3.0456,5.89202 -2.95244,2.48432 -3.01021,2.6935 -1.88875,6.8389 0.65062,2.40495 0.89855,6.76872 0.56658,9.97217 -0.4923,4.75057 -0.18043,6.57634 1.87898,11 4.71094,10.11923 2.75188,21.95837 -5.07381,30.66242 -7.26825,8.08404 -18.68906,11.5931 -28.63419,8.79789 z"
       style="fill:#9c9fa0" />
    <path
       sodipodi:nodetypes="ccssscccsccccssssssccccccssssssscc"
       id="path2936"
       d="m 403.67624,298.9336 0.5884,2.75 c 2.30206,10.75901 10.3851,21.10907 20.27172,25.95726 4.99723,2.45053 6.81696,2.78486 15.17798,2.78855 8.14912,0.004 10.28858,-0.36568 15.04563,-2.59692 10.2874,-4.82518 17.77962,-13.65701 20.09506,-23.68803 l 1.20281,-5.21086 47.82825,0 c 26.30554,0 47.82825,0.2341 47.82825,0.52022 0,0.28612 -27.30017,39.43612 -60.66703,87 l -60.66704,86.47978 -46.70403,-174 z m 28.03163,23.06566 c -7.78653,-2.36855 -15.51246,-9.62066 -18.45356,-17.32182 -2.3229,-6.08244 -1.81585,-16.59618 1.08269,-22.4496 1.70687,-3.44692 2.00285,-5.52187 1.64042,-11.5 -0.24322,-4.01183 -0.004,-8.41924 0.53169,-9.79424 0.84486,-2.16876 0.52549,-2.91536 -2.41043,-5.63487 -2.58267,-2.3923 -3.38434,-3.94992 -3.38434,-6.57569 0,-7.81612 9.80323,-11.16709 14.90135,-5.09363 l 2.59865,3.09581 6.08271,-1.49337 c 5.29947,-1.30108 6.7981,-1.31118 11.63844,-0.0784 l 5.55572,1.41499 2.42944,-3.01743 c 3.3379,-4.14577 8.98009,-4.26461 12.42328,-0.26166 3.36258,3.90922 3.11312,8.14802 -0.68852,11.69928 -3.05839,2.85696 -3.05872,2.8585 -1.90447,8.72546 0.81575,4.14637 0.85259,6.96127 0.12558,9.59429 -0.88125,3.19162 -0.68916,4.40264 1.33878,8.44018 7.19268,14.3203 1.89866,30.53433 -12.38377,37.92789 -5.20955,2.69681 -7.35208,3.24234 -12.45456,3.17118 -3.38945,-0.0473 -7.29054,-0.42905 -8.6691,-0.84839 l 0,2e-5 z"
       style="fill:#8ed24b" />
    <path
       sodipodi:nodetypes="csssscccccccccssssssccccccssssssscc"
       id="path2934"
       d="m 403.71434,300.39609 c 0,0.80437 0.93815,3.96993 2.08479,7.03458 2.7651,7.3904 11.24372,16.53553 18.73723,20.21019 4.99723,2.45053 6.81696,2.78486 15.17798,2.78855 8.14912,0.004 10.28858,-0.36568 15.04563,-2.59692 9.99738,-4.68916 16.95504,-12.72041 20.48757,-23.64889 l 1.69701,-5.25 47.45299,0 47.45299,0 -1.91694,2.75 c -1.05431,1.5125 -28.34294,40.4375 -60.64139,86.5 l -58.72445,83.75 C 294.397,471.88557 356.25311,274.75024 403.71434,300.39609 z m 27.99353,21.60317 c -7.78653,-2.36855 -15.51246,-9.62066 -18.45356,-17.32182 -2.3229,-6.08244 -1.81585,-16.59618 1.08269,-22.4496 1.70687,-3.44692 2.00285,-5.52187 1.64042,-11.5 -0.24322,-4.01183 -0.004,-8.41924 0.53169,-9.79424 0.84486,-2.16876 0.52549,-2.91536 -2.41043,-5.63487 -2.58267,-2.3923 -3.38434,-3.94992 -3.38434,-6.57569 0,-7.81612 9.80323,-11.16709 14.90135,-5.09363 l 2.59865,3.09581 6.08271,-1.49337 c 5.29947,-1.30108 6.7981,-1.31118 11.63844,-0.0784 l 5.55572,1.41499 2.42944,-3.01743 c 3.3379,-4.14577 8.98009,-4.26461 12.42328,-0.26166 3.36258,3.90922 3.11312,8.14802 -0.68852,11.69928 -3.05839,2.85696 -3.05872,2.8585 -1.90447,8.72546 0.81575,4.14637 0.85259,6.96127 0.12558,9.59429 -0.88125,3.19162 -0.68916,4.40264 1.33878,8.44018 7.19268,14.3203 1.89866,30.53433 -12.38377,37.92789 -5.20955,2.69681 -7.35208,3.24234 -12.45456,3.17118 -3.38945,-0.0473 -7.29054,-0.42905 -8.6691,-0.84839 l 0,2e-5 z"
       style="fill:#72d015" />
    <path
       sodipodi:nodetypes="cssssssssssscccssscccscccssssssccccccssssssscc"
       id="path2932"
       d="m 415.21434,436.51624 c -3.94428,-1.76056 -8.01884,-6.18477 -9.94695,-10.80052 -1.23699,-2.96126 -1.55305,-7.99811 -1.55305,-24.75 0,-19.3625 -0.13892,-21.03242 -1.75,-21.03586 -2.84011,-0.006 -8.11705,-3.72994 -10.2554,-7.23712 -1.85329,-3.03964 -1.98712,-5.07755 -1.98712,-30.25914 0,-25.18159 0.13383,-27.2195 1.98712,-30.25914 2.26895,-3.72138 7.46297,-7.23162 10.70861,-7.23712 1.65121,-0.003 2.702,1.12388 4.1941,4.49702 2.7991,6.32782 11.31908,14.96473 17.9909,18.23781 4.92666,2.41693 6.77419,2.75356 15.13282,2.75724 8.74703,0.004 10.06377,-0.263 16.19736,-3.28256 7.49342,-3.689 13.44564,-9.72429 17.03166,-17.26935 l 2.29175,-4.82189 3.22287,1.56088 c 1.77258,0.85848 4.23817,3.19353 5.4791,5.189 2.19635,3.53182 2.25623,4.34472 2.25623,30.62811 0,26.31693 -0.0573,27.09218 -2.26576,30.64354 -1.24617,2.00394 -3.83367,4.38756 -5.75,5.29692 l -3.48424,1.65337 -0.022,21.70309 c -0.0273,26.99805 -1.14604,30.45054 -11.23252,34.66494 -4.97548,2.07889 -43.6418,2.17569 -48.24552,0.12078 l 4e-5,0 z m 16.49353,-114.51698 c -7.78653,-2.36855 -15.51246,-9.62066 -18.45356,-17.32182 -2.3229,-6.08244 -1.81585,-16.59618 1.08269,-22.4496 1.70687,-3.44692 2.00285,-5.52187 1.64042,-11.5 -0.24322,-4.01183 -0.004,-8.41924 0.53169,-9.79424 0.84486,-2.16876 0.52549,-2.91536 -2.41043,-5.63487 -2.58267,-2.3923 -3.38434,-3.94992 -3.38434,-6.57569 0,-7.81612 9.80323,-11.16709 14.90135,-5.09363 l 2.59865,3.09581 6.08271,-1.49337 c 5.29947,-1.30108 6.7981,-1.31118 11.63844,-0.0784 l 5.55572,1.41499 2.42944,-3.01743 c 3.3379,-4.14577 8.98009,-4.26461 12.42328,-0.26166 3.36258,3.90922 3.11312,8.14802 -0.68852,11.69928 -3.05839,2.85696 -3.05872,2.8585 -1.90447,8.72546 0.81575,4.14637 0.85259,6.96127 0.12558,9.59429 -0.88125,3.19162 -0.68916,4.40264 1.33878,8.44018 7.19268,14.3203 1.89866,30.53433 -12.38377,37.92789 -5.20955,2.69681 -7.35208,3.24234 -12.45456,3.17118 -3.38945,-0.0473 -7.29054,-0.42905 -8.6691,-0.84839 l 0,2e-5 z"
       style="fill:#5d6163" />
    <path
       sodipodi:nodetypes="csssssssssscccssscccscccsssssssssssssssssc"
       id="path2930"
       d="m 415.21434,436.51624 c -3.94428,-1.76056 -8.01884,-6.18477 -9.94695,-10.80052 -1.23699,-2.96126 -1.55305,-7.99811 -1.55305,-24.75 0,-19.3625 -0.13892,-21.03242 -1.75,-21.03586 -2.84011,-0.006 -8.11705,-3.72994 -10.2554,-7.23712 -1.85329,-3.03964 -1.98712,-5.07755 -1.98712,-30.25914 0,-25.18159 0.13383,-27.2195 1.98712,-30.25914 2.21406,-3.63135 7.44541,-7.23336 10.5054,-7.23342 1.44899,-3e-5 2.92067,1.7805 5.34178,6.46282 3.81387,7.37584 8.76026,12.26348 16.37232,16.17784 7.52884,3.87157 20.74746,4.49814 29.03256,1.37615 7.56458,-2.85048 15.78565,-10.40011 19.56853,-17.97032 l 2.91792,-5.83927 3.12721,1.51456 c 1.71997,0.833 4.14252,3.1472 5.38345,5.14267 2.19635,3.53182 2.25623,4.34472 2.25623,30.62811 0,26.31693 -0.0573,27.09218 -2.26576,30.64354 -1.24617,2.00394 -3.83367,4.38756 -5.75,5.29692 l -3.48424,1.65337 -0.022,21.70309 c -0.0273,26.99805 -1.14604,30.45054 -11.23252,34.66494 -4.97548,2.07889 -43.6418,2.17569 -48.24552,0.12078 l 4e-5,0 z m 16.20268,-115.02496 c -13.04388,-4.65287 -20.80004,-16.63634 -19.42029,-30.00484 0.30243,-2.93029 1.35605,-6.84094 2.34137,-8.69032 1.29326,-2.42736 1.81277,-5.72648 1.86798,-11.86252 0.0421,-4.675 0.43677,-9.69507 0.87712,-11.15572 0.66348,-2.2008 0.44165,-2.76965 -1.29508,-3.32086 -2.34605,-0.74461 -5.07378,-5.32466 -5.07378,-8.51922 0,-3.4019 4.37721,-7.0042 8.51092,-7.0042 2.75921,0 4.27019,0.73177 6.45883,3.12802 2.65425,2.90603 3.08665,3.04797 6.09285,2 4.01859,-1.40089 12.92087,-1.465 16.46226,-0.11857 2.31958,0.88191 3.01027,0.6292 5.46631,-2 4.32803,-4.63317 10.86576,-4.12058 13.54582,1.06207 2.15857,4.17422 1.83151,5.75998 -1.97257,9.56406 -3.1456,3.1456 -3.34579,3.69312 -2.37185,6.48697 0.58504,1.67827 0.84128,6.16032 0.5694,9.96012 -0.42144,5.89027 -0.14551,7.5977 1.87186,11.5825 3.29408,6.50663 3.29433,16.79968 5.8e-4,23.87293 -5.84309,12.54792 -21.4697,19.46489 -33.93173,15.01958 z"
       style="fill:#579620" />
    <path
       sodipodi:nodetypes="cscccssssssssssssscccsscccsssssssssssssssssc"
       id="path2928"
       d="m 417.43557,436.55811 c -5.40973,-1.50554 -8.89292,-4.3592 -11.16489,-9.14702 -1.25968,-2.65458 -1.55846,-7.44447 -1.56746,-25.12862 l -0.0111,-21.84887 -5.23888,-2 c -4.4038,-1.6812 -5.59753,-2.71123 -7.48888,-6.46189 -2.15667,-4.27682 -2.24909,-5.50043 -2.22804,-29.5 0.0199,-22.63504 0.20857,-25.44925 1.96623,-29.32188 1.48428,-3.27029 2.95775,-4.74376 6.22804,-6.22804 2.35607,-1.06935 4.73377,-1.95248 5.28377,-1.96253 0.55,-0.01 2.5038,2.89002 4.34178,6.4446 3.81387,7.37584 8.76026,12.26348 16.37232,16.17784 7.52884,3.87157 20.74746,4.49814 29.03256,1.37615 7.29556,-2.74911 15.56601,-10.22126 19.369,-17.49944 1.58639,-3.03603 3.38615,-5.52113 3.99948,-5.52243 1.84612,-0.004 6.32655,3.98419 7.90484,7.03626 1.19909,2.31878 1.48002,7.96839 1.48002,29.76382 0,26.26231 -0.0537,26.98254 -2.25947,30.29966 -1.24271,1.86883 -3.70797,4.07288 -5.47836,4.89788 l -3.21889,1.5 -0.0272,20.5 c -0.0292,22.02175 -0.66528,26.24123 -4.67362,31.00486 -5.04928,6.00073 -6.91857,6.44317 -28.34245,6.70828 -13.82529,0.17108 -20.89068,-0.14572 -24.27877,-1.08863 l -3e-5,0 z m 13.98145,-115.06683 c -13.04388,-4.65287 -20.80004,-16.63634 -19.42029,-30.00484 0.30243,-2.93029 1.35605,-6.84094 2.34137,-8.69032 1.29326,-2.42736 1.81277,-5.72648 1.86798,-11.86252 0.0421,-4.675 0.43677,-9.69507 0.87712,-11.15572 0.66348,-2.2008 0.44165,-2.76965 -1.29508,-3.32086 -2.34605,-0.74461 -5.07378,-5.32466 -5.07378,-8.51922 0,-3.4019 4.37721,-7.0042 8.51092,-7.0042 2.75921,0 4.27019,0.73177 6.45883,3.12802 2.65425,2.90603 3.08665,3.04797 6.09285,2 4.01859,-1.40089 12.92087,-1.465 16.46226,-0.11857 2.31958,0.88191 3.01027,0.6292 5.46631,-2 4.32803,-4.63317 10.86576,-4.12058 13.54582,1.06207 2.15857,4.17422 1.83151,5.75998 -1.97257,9.56406 -3.1456,3.1456 -3.34579,3.69312 -2.37185,6.48697 0.58504,1.67827 0.84128,6.16032 0.5694,9.96012 -0.42144,5.89027 -0.14551,7.5977 1.87186,11.5825 3.29408,6.50663 3.29433,16.79968 5.8e-4,23.87293 -5.84309,12.54792 -21.4697,19.46489 -33.93173,15.01958 z"
       style="fill:#151819;fill-opacity:1" />
    <g
       id="g3952"
       transform="matrix(0.73546191,0,0,0.73546191,-59.313519,92.43678)">
      <path
         sodipodi:nodetypes="cssszssss"
         transform="translate(150.99358,216.38669)"
         id="path3946"
         d="m 506.08643,23.521771 c -0.32119,-4.931461 4.57093,-11.527814 12.81631,-10.796005 9.56398,0.84884 11.68001,7.709183 17.36199,7.639278 4.57677,-0.05631 7.57285,-5.964187 13.00572,-6.502857 4.41418,-0.437667 5.45402,3.165739 4.73509,8.081221 -0.71892,4.915481 -2.71745,8.411001 -5.80838,9.028238 -5.03704,1.005863 -7.5539,-8.149111 -12.37437,-8.018087 -4.78916,0.128491 -12.75039,8.610204 -19.88738,8.523163 -6.4607,-0.07879 -9.57471,-3.743767 -9.84898,-7.954951 z"
         style="fill:#ffffff;fill-opacity:1;stroke:#ffffff;stroke-width:1px;stroke-linecap:butt;stroke-linejoin:miter;stroke-opacity:1" />
      <path
         sodipodi:nodetypes="czssss"
         transform="translate(150.99358,216.38669)"
         id="path3948"
         d="m 527.78677,32.526828 c -1.19216,-1.267738 2.72596,-4.854618 6.93696,-4.816514 4.21099,0.0381 5.20753,4.004124 4.31765,4.665282 -1.28997,0.958415 -1.57632,-1.598929 -2.67045,-2.002142 -0.86224,-0.317758 -2.95126,-0.417019 -4.24215,0.12437 -1.30572,0.547608 -3.34447,3.089786 -4.34201,2.029004 z"
         style="fill:#ffffff;fill-opacity:1;stroke:none" />
      <path
         sodipodi:nodetypes="csscs"
         transform="translate(150.99358,216.38669)"
         id="path3950"
         d="m 521.17558,36.401216 c 1.87865,-2.111362 0.82002,1.973005 10.73287,1.641498 6.22513,-0.208182 8.31642,-2.989301 8.97659,-2.228201 1.50163,1.73119 -4.69977,4.266395 -8.93195,4.47172 -7.56723,0.841017 -12.17054,-2.319428 -10.77751,-3.885017 z"
         style="fill:#ffffff;fill-opacity:1;stroke:none" />
    </g>
  </g>
</svg>
